<svg width="128" height="100" viewBox="0 0 128 100" fill="none" xmlns="http://www.w3.org/2000/svg">
<g id="Layer_1" clip-path="url(#clip0_205_6902)">
<path id="Vector" d="M24.9257 36.3136L8.03425 81.636L0.842041 71.44L24.9257 36.3106V36.3136ZM90.0548 37.5955L89.7026 37.0478L65.9037 0V10.8059L86.0389 42.1487L89.4354 47.4362L93.099 42.3353L95.2802 39.3007L95.336 39.0106L97.159 29.5459L91.3641 36.1093L90.0519 37.5955H90.0548ZM110.381 47.5605L97.1619 29.5429L105.023 65.1963L110.381 47.5605L121.504 82.6692L127.158 70.4216L110.381 47.5576V47.5605ZM41.2799 19.2255V40.1563L49.3792 29.6909L41.2799 19.2255ZM98.0162 95.7102L68.3373 49.5086L64.9408 44.2211L64.339 45.0589L24.8728 100H32.068L66.6464 51.8651L68.3226 49.5322L76.0344 72.2926L76.0696 72.3962L93.8006 100H100.743L97.9956 95.725L98.0191 95.7102H98.0162ZM65.9154 22.5591L62.2518 27.66L10.2829 100H17.4781L65.6453 32.9475L108.719 100H115.662L69.3119 27.8465L65.9154 22.5591ZM64.9408 66.3775L61.6236 70.9959L64.9408 66.3805V66.3775ZM68.3373 71.665L64.9408 66.3775L61.6236 70.9959L40.7867 100H47.9819L66.0094 74.9038L68.3343 71.665H68.3373Z" fill="url(#paint0_radial_205_6902)"/>
</g>
<defs>
<radialGradient id="paint0_radial_205_6902" cx="0" cy="0" r="1" gradientUnits="userSpaceOnUse" gradientTransform="translate(64.0014 50.2106) scale(90.6747 190.204)">
<stop stop-color="#F0F0F0"/>
<stop offset="1"/>
</radialGradient>
<clipPath id="clip0_205_6902">
<rect width="126.316" height="100" fill="white" transform="translate(0.842041)"/>
</clipPath>
</defs>
</svg>
