<svg width="211" height="20" viewBox="0 0 211 20" fill="none" xmlns="http://www.w3.org/2000/svg">
<g id="Layer_1" clip-path="url(#clip0_1584_23685)">
<g id="Group 22">
<path id="Vector" d="M34.161 0H36.3703L45.892 19.9722H43.3552L40.9063 14.7285H29.537L27.0588 19.9722H24.6393L34.161 0ZM39.9776 12.7193L35.2314 2.60325L30.4559 12.7193H39.9776Z" fill="black"/>
<path id="Vector_2" d="M50.0022 0.13916H58.9862C61.5524 0.13916 63.6102 0.876979 64.925 2.1206C65.9417 3.0858 66.5381 4.47327 66.5381 6.08812C66.5381 9.3735 64.1527 11.3039 60.8681 11.87L67.2859 19.9721H64.3923L58.3361 12.2645H52.368V19.9721H50.012V0.13916H50.0022ZM58.776 10.2552C61.9092 10.2552 64.1479 8.72385 64.1479 6.1206C64.1479 3.6844 62.178 2.20877 58.8054 2.20877H52.3582V10.2552H58.776Z" fill="black"/>
<path id="Vector_3" d="M71.5773 0.13916H73.9332V11.9814L85.9331 0.13916H88.9783L80.0236 8.80737L89.3644 19.9721H86.4121L78.3861 10.3665L73.9381 14.645V19.9721H71.5822V0.13916H71.5773Z" fill="black"/>
<path id="Vector_4" d="M93.0352 0.13916H108.134V2.18092H95.3911V8.95123H106.79V10.993H95.3911V17.935H108.285V19.9767H93.0352V0.13916Z" fill="black"/>
<path id="Vector_5" d="M118.55 2.20877H111.536V0.13916H127.949V2.20877H120.935V19.9721H118.55V2.20877Z" fill="black"/>
<path id="Vector_6" d="M132.574 0.13916H134.93V19.9721H132.574V0.13916Z" fill="black"/>
<path id="Vector_7" d="M141.049 0.13916H143.259L156.422 16.0324V0.13916H158.719V19.9721H156.837L143.347 3.70761V19.9721H141.049V0.13916Z" fill="black"/>
<path id="Vector_8" d="M164.835 0.13916H167.191V19.9721H164.835V0.13916Z" fill="black"/>
<path id="Vector_9" d="M179.845 12.1252L171.159 0.13916H174.023L181.067 10.0556L188.169 0.13916H190.916L182.23 12.0974V19.9721H179.845V12.1252Z" fill="black"/>
<path id="Vector_10" d="M199.123 0H201.332L210.854 19.9722H208.317L205.868 14.7285H194.499L192.021 19.9722H189.601L199.123 0ZM204.94 12.7193L200.194 2.60325L195.418 12.7193H204.94Z" fill="black"/>
<path id="Vector_11" d="M18.5286 0.13916H18.1327H17.3555L16.5979 2.01851L16.2997 2.74705L12.7902 11.4153L10.9816 15.87L10.4928 17.0765L10.0041 15.87L8.19552 11.4153L4.57846 2.51039L4.37805 2.01851L3.61554 0.13916H2.91168H2.44732H0.526367V2.01851V19.9721H2.82369V3.93962L9.34419 20H11.6415L18.162 3.91178V19.9721H20.5229V2.01851V0.13916H18.5286Z" fill="black"/>
</g>
</g>
<defs>
<clipPath id="clip0_1584_23685">
<rect width="210.323" height="20" fill="white" transform="translate(0.526367)"/>
</clipPath>
</defs>
</svg>
