<svg width="168" height="16" viewBox="0 0 168 16" fill="none" xmlns="http://www.w3.org/2000/svg">
<g id="Layer_1" clip-path="url(#clip0_205_6911)">
<path id="Vector" d="M26.8658 0H28.6306L36.2362 15.9777H34.2099L32.2538 11.7828H23.1723L21.1928 15.9777H19.2601L26.8658 0ZM31.512 10.1754L27.7208 2.0826L23.9063 10.1754H31.512Z" fill="#F0F0F0"/>
<path id="Vector_2" d="M39.5198 0.111328H46.696C48.7457 0.111328 50.3895 0.701583 51.4397 1.69648C52.2518 2.46864 52.7282 3.57861 52.7282 4.87049C52.7282 7.4988 50.8228 9.04312 48.1991 9.49602L53.3255 15.9777H51.0142L46.1767 9.81156H41.4095V15.9777H39.5276V0.111328H39.5198ZM46.5281 8.20414C49.0308 8.20414 50.8189 6.97908 50.8189 4.89648C50.8189 2.94752 49.2455 1.76701 46.5515 1.76701H41.4017V8.20414H46.5281Z" fill="#F0F0F0"/>
<path id="Vector_3" d="M56.7535 0.111328H58.6354V9.58511L68.2206 0.111328H70.653L63.5002 7.0459L70.9614 15.9777H68.6032L62.1923 8.29323L58.6393 11.716V15.9777H56.7574V0.111328H56.7535Z" fill="#F0F0F0"/>
<path id="Vector_4" d="M73.8936 0.111328H85.9541V1.74474H75.7755V7.16098H84.8804V8.79439H75.7755V14.348H86.0751V15.9814H73.8936V0.111328Z" fill="#F0F0F0"/>
<path id="Vector_5" d="M94.2742 1.76701H88.6715V0.111328H101.782V1.76701H96.1796V15.9777H94.2742V1.76701Z" fill="#F0F0F0"/>
<path id="Vector_6" d="M105.476 0.111328H107.357V15.9777H105.476V0.111328Z" fill="#F0F0F0"/>
<path id="Vector_7" d="M112.246 0.111328H114.011L124.525 12.8259V0.111328H126.36V15.9777H124.857L114.081 2.96608V15.9777H112.246V0.111328Z" fill="#F0F0F0"/>
<path id="Vector_8" d="M131.245 0.111328H133.126V15.9777H131.245V0.111328Z" fill="#F0F0F0"/>
<path id="Vector_9" d="M143.235 9.70019L136.297 0.111328H138.585L144.211 8.04451L149.884 0.111328H152.078L145.14 9.67792V15.9777H143.235V9.70019Z" fill="#F0F0F0"/>
<path id="Vector_10" d="M158.633 0H160.398L168.004 15.9777H165.978L164.021 11.7828H154.94L152.96 15.9777H151.028L158.633 0ZM163.28 10.1754L159.489 2.0826L155.674 10.1754H163.28Z" fill="#F0F0F0"/>
<path id="Vector_11" d="M14.3797 0.111328H14.0634H13.4427L12.8375 1.61481L12.5993 2.19764L9.796 9.13221L8.35139 12.696L7.96096 13.6612L7.57052 12.696L6.12592 9.13221L3.2367 2.00831L3.07662 1.61481L2.46755 0.111328H1.90532H1.53441H0V1.61481V15.9777H1.83504V3.1517L7.04344 16H8.87848L14.0869 3.12943V15.9777H15.9727V1.61481V0.111328H14.3797Z" fill="#F0F0F0"/>
</g>
<defs>
<clipPath id="clip0_205_6911">
<rect width="168" height="16" fill="white"/>
</clipPath>
</defs>
</svg>
