<svg xmlns="http://www.w3.org/2000/svg" width="24" height="24" fill="none"><path fill="#616371" d="M11.301 17.898q.12.102.29.102h.815a.37.37 0 0 0 .272-.102.4.4 0 0 0 .12-.289V9.551a.34.34 0 0 0-.12-.272.34.34 0 0 0-.272-.119h-.816q-.17 0-.289.119a.37.37 0 0 0-.102.272v8.058q0 .17.102.289m-.136-10.489q.12.102.29.102h1.07a.43.43 0 0 0 .29-.102.4.4 0 0 0 .118-.289v-.918q0-.17-.119-.289a.4.4 0 0 0-.289-.119h-1.07q-.17 0-.29.119a.43.43 0 0 0-.102.289v.918q0 .17.102.289"/><path fill="#616371" fill-rule="evenodd" d="M22 12c0 5.523-4.477 10-10 10S2 17.523 2 12 6.477 2 12 2s10 4.477 10 10m-1.7 0a8.3 8.3 0 1 1-16.6 0 8.3 8.3 0 0 1 16.6 0" clip-rule="evenodd"/></svg>